<svg width="31" height="32" viewBox="0 0 31 32" fill="none"
  xmlns="http://www.w3.org/2000/svg">
  <g filter="url(#filter0_i)">
    <path fill-rule="evenodd" clip-rule="evenodd" d="M14 0C16.1908 0 18.264 0.503207 20.1105 1.40034C20 1.5 14 14 14 14C14 14 14 14 0 14C0 6.26801 6.26801 0 14 0Z" fill="url(#paint0_linear)"/>
  </g>
  <path d="M0.252227 13.75C0.385569 6.27143 6.48959 0.25 14 0.25C16.0594 0.25 18.0125 0.70259 19.7657 1.51353C19.7192 1.60488 19.6609 1.72114 19.5923 1.85907C19.4173 2.2113 19.1735 2.70846 18.8844 3.30155C18.3061 4.4879 17.5456 6.06011 16.7887 7.6289C16.0317 9.19777 15.2782 10.7635 14.7139 11.937C14.4318 12.5237 14.197 13.0124 14.0327 13.3544L13.8427 13.75H13.8414H13.8372H13.8329H13.8286H13.8242H13.8198H13.8152H13.8106H13.8059H13.8011H13.7963H13.7913H13.7863H13.7812H13.7761H13.7708H13.7655H13.7601H13.7546H13.749H13.7434H13.7376H13.7318H13.7259H13.7199H13.7138H13.7076H13.7013H13.695H13.6885H13.682H13.6754H13.6687H13.6619H13.655H13.648H13.6409H13.6337H13.6264H13.619H13.6116H13.604H13.5963H13.5886H13.5807H13.5728H13.5647H13.5565H13.5483H13.5399H13.5314H13.5229H13.5142H13.5054H13.4965H13.4875H13.4784H13.4692H13.4599H13.4505H13.441H13.4313H13.4216H13.4117H13.4018H13.3917H13.3815H13.3712H13.3607H13.3502H13.3396H13.3288H13.3179H13.3069H13.2958H13.2846H13.2732H13.2617H13.2501H13.2384H13.2266H13.2146H13.2025H13.1903H13.178H13.1655H13.153H13.1403H13.1274H13.1145H13.1014H13.0882H13.0748H13.0613H13.0477H13.034H13.0201H13.0061H12.992H12.9777H12.9633H12.9488H12.9341H12.9193H12.9044H12.8893H12.8741H12.8588H12.8433H12.8276H12.8119H12.796H12.7799H12.7637H12.7474H12.7309H12.7143H12.6975H12.6806H12.6635H12.6289H12.6114H12.5938H12.576H12.558H12.5399H12.5217H12.5033H12.4847H12.466H12.4472H12.4282H12.409H12.3897H12.3702H12.3505H12.3308H12.3108H12.2907H12.2704H12.25H12.2294H12.2087H12.1878H12.1667H12.1454H12.124H12.1025H12.0808H12.0589H12.0368H12.0146H11.9922H11.9696H11.9469H11.924H11.9009H11.8777H11.8543H11.8307H11.807H11.783H11.7589H11.7347H11.7102H11.6856H11.6608H11.6358H11.6107H11.5854H11.5599H11.5342H11.5083H11.4823H11.456H11.4296H11.403H11.3763H11.3493H11.3222H11.2948H11.2673H11.2396H11.2118H11.1837H11.1554H11.127H11.0983H11.0695H11.0405H11.0113H10.9819H10.9523H10.9225H10.8926H10.8624H10.832H10.8015H10.7707H10.7398H10.7086H10.6773H10.6457H10.614H10.582H10.5499H10.5175H10.485H10.4522H10.4193H10.3861H10.3528H10.3192H10.2855H10.2515H10.2173H10.1829H10.1483H10.1135H10.0785H10.0433H10.0078H9.9722H9.93634H9.90027H9.86399H9.8275H9.79079H9.75387H9.71673H9.67938H9.64181H9.60402H9.56601H9.52779H9.48935H9.45068H9.4118H9.3727H9.33337H9.29382H9.25405H9.21406H9.17384H9.1334H9.09273H9.05184H9.01072H8.96937H8.9278H8.88599H8.84396H8.8017H8.7592H8.71648H8.67352H8.63034H8.58692H8.54326H8.49938H8.45525H8.4109H8.3663H8.32147H8.2764H8.2311H8.18556H8.13977H8.09375H8.04749H8.00098H7.95424H7.90725H7.86002H7.81255H7.76483H7.71687H7.66866H7.6202H7.5715H7.52256H7.47336H7.42392H7.37422H7.32428H7.27409H7.22364H7.17295H7.122H7.0708H7.01934H6.96764H6.91567H6.86345H6.81098H6.75825H6.70526H6.65201H6.59851H6.54475H6.49072H6.43644H6.38189H6.32709H6.27202H6.21669H6.16109H6.10523H6.04911H5.99272H5.93607H5.87914H5.82196H5.7645H5.70677H5.64878H5.59052H5.53198H5.47318H5.4141H5.35475H5.29513H5.23523H5.17506H5.11462H5.0539H4.9929H4.93163H4.87008H4.80825H4.74614H4.68376H4.62109H4.55815H4.49492H4.43141H4.36762H4.30355H4.23919H4.17455H4.10963H4.04442H3.97892H3.91314H3.84706H3.78071H3.71406H3.64712H3.5799H3.51238H3.44457H3.37647H3.30808H3.2394H3.17042H3.10115H3.03158H2.96172H2.89156H2.8211H2.75035H2.6793H2.60795H2.5363H2.46436H0.252227Z" stroke="url(#paint1_linear)" stroke-width="0.5"/>
  <g filter="url(#filter1_bi)">
    <rect x="3" y="4" width="28" height="28" rx="14" fill="#BCBCBC" fill-opacity="0.33"/>
    <rect x="3.25" y="4.25" width="27.5" height="27.5" rx="13.75" stroke="url(#paint2_linear)" stroke-width="0.5"/>
  </g>
  <defs>
    <filter id="filter0_i" x="0" y="0" width="20.1105" height="14" filterUnits="userSpaceOnUse" color-interpolation-filters="sRGB">
      <feFlood flood-opacity="0" result="BackgroundImageFix"/>
      <feBlend mode="normal" in="SourceGraphic" in2="BackgroundImageFix" result="shape"/>
      <feColorMatrix in="SourceAlpha" type="matrix" values="0 0 0 0 0 0 0 0 0 0 0 0 0 0 0 0 0 0 127 0" result="hardAlpha"/>
      <feOffset/>
      <feGaussianBlur stdDeviation="5"/>
      <feComposite in2="hardAlpha" operator="arithmetic" k2="-1" k3="1"/>
      <feColorMatrix type="matrix" values="0 0 0 0 1 0 0 0 0 1 0 0 0 0 1 0 0 0 0.4 0"/>
      <feBlend mode="normal" in2="shape" result="effect1_innerShadow"/>
    </filter>
    <filter id="filter1_bi" x="-2.43656" y="-1.43656" width="38.8731" height="38.8731" filterUnits="userSpaceOnUse" color-interpolation-filters="sRGB">
      <feFlood flood-opacity="0" result="BackgroundImageFix"/>
      <feGaussianBlur in="BackgroundImage" stdDeviation="2.71828"/>
      <feComposite in2="SourceAlpha" operator="in" result="effect1_backgroundBlur"/>
      <feBlend mode="normal" in="SourceGraphic" in2="effect1_backgroundBlur" result="shape"/>
      <feColorMatrix in="SourceAlpha" type="matrix" values="0 0 0 0 0 0 0 0 0 0 0 0 0 0 0 0 0 0 127 0" result="hardAlpha"/>
      <feOffset/>
      <feGaussianBlur stdDeviation="2"/>
      <feComposite in2="hardAlpha" operator="arithmetic" k2="-1" k3="1"/>
      <feColorMatrix type="matrix" values="0 0 0 0 1 0 0 0 0 1 0 0 0 0 1 0 0 0 0.3 0"/>
      <feBlend mode="normal" in2="shape" result="effect2_innerShadow"/>
    </filter>
    <linearGradient id="paint0_linear" x1="0.0881704" y1="0" x2="0.0881704" y2="13.8772" gradientUnits="userSpaceOnUse">
      <stop stop-color="#E3E3E3"/>
      <stop offset="1" stop-color="#424242"/>
    </linearGradient>
    <linearGradient id="paint1_linear" x1="0" y1="0" x2="0" y2="14" gradientUnits="userSpaceOnUse">
      <stop stop-color="white" stop-opacity="0.4"/>
      <stop offset="1" stop-color="white" stop-opacity="0.01"/>
    </linearGradient>
    <linearGradient id="paint2_linear" x1="3" y1="4" x2="3" y2="32" gradientUnits="userSpaceOnUse">
      <stop stop-color="white" stop-opacity="0.3"/>
      <stop offset="1" stop-color="white" stop-opacity="0.13"/>
    </linearGradient>
  </defs>
</svg>
